<svg width="26" height="20" viewBox="0 0 26 20" fill="none" xmlns="http://www.w3.org/2000/svg">
<path d="M24.8224 8.74783H24.2073V6.31312C24.2073 5.6409 23.6564 5.09576 22.9771 5.09576H20.1477L16.95 1.1401C16.7195 0.855002 16.4271 0.624855 16.0945 0.466683C15.7619 0.308511 15.3976 0.226364 15.0287 0.226318L10.6754 0.226318C9.99609 0.226318 9.4452 0.771467 9.4452 1.44368V5.09576H2.67924C2.33941 5.09576 2.06416 5.36814 2.06416 5.70444V8.74783H1.44907C1.10924 8.74783 0.833984 9.02022 0.833984 9.35651V10.5739C0.833984 10.9102 1.10924 11.1826 1.44907 11.1826H2.09184C3.21475 9.71221 4.9789 8.74783 6.98485 8.74783C8.9908 8.74783 10.755 9.71221 11.8779 11.1826H14.394C15.5169 9.71221 17.281 8.74783 19.287 8.74783C21.2929 8.74783 23.0571 9.71221 24.18 11.1826H24.8224C25.1622 11.1826 25.4375 10.9102 25.4375 10.5739V9.35651C25.4375 9.02022 25.1622 8.74783 24.8224 8.74783ZM11.9055 5.09576V2.66104H15.0287L16.9969 5.09576H11.9055ZM23.5922 13.6173H23.3923C23.3077 13.3384 23.1974 13.074 23.0598 12.8226L23.2008 12.6829C23.4411 12.4452 23.4411 12.0598 23.2008 11.822L22.3309 10.9611C22.0906 10.7234 21.7012 10.7234 21.4609 10.9611L21.3198 11.1008C21.0642 10.9643 20.7951 10.854 20.5168 10.7717V10.5739C20.5168 10.2376 20.2415 9.96519 19.9017 9.96519H18.6715C18.3317 9.96519 18.0564 10.2376 18.0564 10.5739V10.7717C17.7746 10.8554 17.5075 10.9646 17.2533 11.1008L17.1123 10.9611C16.872 10.7234 16.4826 10.7234 16.2423 10.9611L15.3723 11.822C15.1321 12.0598 15.1321 12.4452 15.3723 12.6829L15.5134 12.8226C15.3755 13.0756 15.2641 13.3418 15.1809 13.6173H14.981C14.6411 13.6173 14.3659 13.8897 14.3659 14.226V15.4433C14.3659 15.7796 14.6411 16.052 14.981 16.052H15.1809C15.2655 16.3308 15.3758 16.5952 15.5134 16.8467L15.3723 16.9863C15.1321 17.2241 15.1321 17.6094 15.3723 17.8472L16.2423 18.7081C16.4826 18.9459 16.872 18.9459 17.1123 18.7081L17.2533 18.5685C17.5075 18.7043 17.775 18.8139 18.0568 18.8976V19.0954C18.0568 19.4317 18.3321 19.7041 18.6719 19.7041H19.9021C20.2419 19.7041 20.5171 19.4317 20.5171 19.0954V18.8976C20.7989 18.8139 21.0661 18.7047 21.3206 18.5685L21.4617 18.7081C21.702 18.9459 22.0914 18.9459 22.3317 18.7081L23.2016 17.8472C23.4419 17.6094 23.4419 17.2241 23.2016 16.9863L23.0605 16.8467C23.1985 16.5937 23.3099 16.3274 23.3931 16.052H23.593C23.9328 16.052 24.2081 15.7796 24.2081 15.4433V14.226C24.2073 13.8897 23.932 13.6173 23.5922 13.6173ZM19.2866 16.6607C18.2675 16.6607 17.4413 15.8431 17.4413 14.8346C17.4413 13.8261 18.2675 13.0086 19.2866 13.0086C20.3057 13.0086 21.1319 13.8261 21.1319 14.8346C21.1319 15.8431 20.3057 16.6607 19.2866 16.6607ZM11.2905 13.6173H11.0906C11.006 13.3384 10.8957 13.074 10.758 12.8226L10.8991 12.6829C11.1394 12.4452 11.1394 12.0598 10.8991 11.822L10.0291 10.9611C9.78888 10.7234 9.39945 10.7234 9.15918 10.9611L9.0181 11.1008C8.76244 10.9643 8.49335 10.854 8.21503 10.7717V10.5739C8.21503 10.2376 7.93978 9.96519 7.59994 9.96519H6.36977C6.02993 9.96519 5.75468 10.2376 5.75468 10.5739V10.7717C5.47289 10.8554 5.20571 10.9646 4.95161 11.1008L4.81052 10.9611C4.57025 10.7234 4.18083 10.7234 3.94056 10.9611L3.07059 11.8217C2.83033 12.0594 2.83033 12.4448 3.07059 12.6826L3.21168 12.8222C3.07375 13.0752 2.96233 13.3415 2.87915 13.6169H2.67924C2.33941 13.6169 2.06416 13.8893 2.06416 14.2256V15.4429C2.06416 15.7792 2.33941 16.0516 2.67924 16.0516H2.87915C2.96372 16.3305 3.07405 16.5949 3.21168 16.8463L3.07059 16.9859C2.83033 17.2237 2.83033 17.6091 3.07059 17.8468L3.94056 18.7077C4.18083 18.9455 4.57025 18.9455 4.81052 18.7077L4.95161 18.5681C5.20571 18.7039 5.47328 18.8135 5.75506 18.8972V19.095C5.75506 19.4313 6.03031 19.7037 6.37015 19.7037H7.60032C7.94016 19.7037 8.21541 19.4313 8.21541 19.095V18.8972C8.4972 18.8135 8.76438 18.7043 9.01887 18.5681L9.15995 18.7077C9.40022 18.9455 9.78965 18.9455 10.0299 18.7077L10.8999 17.8468C11.1401 17.6091 11.1401 17.2237 10.8999 16.9859L10.7588 16.8463C10.8967 16.5933 11.0081 16.327 11.0913 16.0516H11.2912C11.6311 16.0516 11.9063 15.7792 11.9063 15.4429V14.2256C11.9055 13.8897 11.6303 13.6173 11.2905 13.6173ZM6.98485 16.6607C5.96573 16.6607 5.13959 15.8431 5.13959 14.8346C5.13959 13.8261 5.96573 13.0086 6.98485 13.0086C8.00397 13.0086 8.83011 13.8261 8.83011 14.8346C8.83011 15.8431 8.00397 16.6607 6.98485 16.6607Z" fill="#D45B8F"/>
</svg>
